<svg width="24" height="24" viewBox="0 0 24 24" fill="none" xmlns="http://www.w3.org/2000/svg">
<path d="M15.5 11.5001C15.5 13.5001 13 15.0001 13 16.5001H11C11 15.0001 8.50001 13.5001 8.50001 11.5001C8.50001 9.57005 10.07 8.00005 12 8.00005C13.93 8.00005 15.5 9.57005 15.5 11.5001ZM13 17.5001H11V19.0001H13V17.5001ZM22 12.0001C22 9.24005 20.88 6.74005 19.07 4.93005L18.01 5.99005C18.8002 6.77865 19.4269 7.71548 19.8542 8.74682C20.2815 9.77815 20.5009 10.8837 20.5 12.0001C20.5 14.3401 19.55 16.4701 18.01 18.0101L19.07 19.0701C20 18.1427 20.7376 17.0407 21.2405 15.8274C21.7433 14.6141 22.0014 13.3134 22 12.0001V12.0001ZM3.50001 12.0001C3.50001 9.66005 4.45001 7.53005 5.99001 5.99005L4.93001 4.93005C3.99998 5.85741 3.26236 6.95939 2.75954 8.17269C2.25672 9.38599 1.99859 10.6867 2.00001 12.0001C2.00001 14.7601 3.12001 17.2601 4.93001 19.0701L5.99001 18.0101C5.19984 17.2215 4.57314 16.2846 4.14585 15.2533C3.71855 14.222 3.49908 13.1164 3.50001 12.0001V12.0001ZM17.5 12.0001C17.5 13.5201 16.88 14.8901 15.89 15.8901L16.95 16.9501C17.6011 16.3008 18.1173 15.5292 18.4692 14.6797C18.821 13.8302 19.0014 12.9195 19 12.0001C19 10.0701 18.22 8.32005 16.95 7.05005L15.89 8.11005C16.88 9.11005 17.5 10.4801 17.5 12.0001ZM7.05001 16.9501L8.11001 15.8901C7.11001 14.8901 6.50001 13.5201 6.50001 12.0001C6.50001 10.4801 7.12001 9.11005 8.11001 8.11005L7.05001 7.05005C6.39895 7.69933 5.88266 8.4709 5.53085 9.3204C5.17904 10.1699 4.99863 11.0806 5.00001 12.0001C5.00001 13.9301 5.78001 15.6801 7.05001 16.9501Z" fill="white"/>
</svg>
